<svg xmlns="http://www.w3.org/2000/svg" viewBox="0 0 64 64" role="img" aria-label="Slack">
  <title>Slack</title>
  <path fill="#E01E5A" d="M17.3 39.5a5.1 5.1 0 1 1-5.1-5.1h5.1v5.1Zm2.6 0a5.1 5.1 0 0 1 10.2 0v12.8a5.1 5.1 0 0 1-10.2 0V39.5Z"/>
  <path fill="#36C5F0" d="M25 18.9a5.1 5.1 0 1 1 5.1-5.1v5.1H25Zm0 2.6a5.1 5.1 0 0 1 0 10.2H12.2a5.1 5.1 0 0 1 0-10.2H25Z"/>
  <path fill="#2EB67D" d="M45.6 26.6a5.1 5.1 0 1 1 5.1 5.1h-5.1v-5.1Zm-2.6 0a5.1 5.1 0 0 1-10.2 0V13.8a5.1 5.1 0 0 1 10.2 0v12.8Z"/>
  <path fill="#ECB22E" d="M37.9 47.2a5.1 5.1 0 1 1-5.1 5.1v-5.1h5.1Zm0-2.6a5.1 5.1 0 0 1 0-10.2h12.8a5.1 5.1 0 0 1 0 10.2H37.9Z"/>
</svg>
